<svg width="148" height="86" viewBox="0 0 148 86" fill="none" xmlns="http://www.w3.org/2000/svg">
<path d="M10.9773 56.8043V71.7361H2.64204V36.827H10.7045V50.3611H10.9943C11.5852 48.7475 12.5511 47.4861 13.892 46.577C15.2443 45.668 16.8977 45.2134 18.8523 45.2134C20.6932 45.2134 22.2955 45.6225 23.6591 46.4407C25.0227 47.2475 26.0795 48.3895 26.8295 49.8668C27.5909 51.3441 27.9659 53.0714 27.9545 55.0486V71.7361H19.6193V56.685C19.6307 55.2305 19.267 54.0941 18.5284 53.2759C17.7898 52.4577 16.75 52.0486 15.4091 52.0486C14.5341 52.0486 13.7614 52.2418 13.0909 52.6282C12.4318 53.0032 11.9148 53.543 11.5398 54.2475C11.1761 54.9521 10.9886 55.8043 10.9773 56.8043Z" fill="#E47200"/>
<path d="M10.9773 56.8043V71.7361H2.64204V36.827H10.7045V50.3611H10.9943C11.5852 48.7475 12.5511 47.4861 13.892 46.577C15.2443 45.668 16.8977 45.2134 18.8523 45.2134C20.6932 45.2134 22.2955 45.6225 23.6591 46.4407C25.0227 47.2475 26.0795 48.3895 26.8295 49.8668C27.5909 51.3441 27.9659 53.0714 27.9545 55.0486V71.7361H19.6193V56.685C19.6307 55.2305 19.267 54.0941 18.5284 53.2759C17.7898 52.4577 16.75 52.0486 15.4091 52.0486C14.5341 52.0486 13.7614 52.2418 13.0909 52.6282C12.4318 53.0032 11.9148 53.543 11.5398 54.2475C11.1761 54.9521 10.9886 55.8043 10.9773 56.8043Z" fill="black" fill-opacity="0.2"/>
<path d="M40.5384 72.1793C38.8679 72.1793 37.3849 71.9009 36.0895 71.3441C34.8054 70.7759 33.7884 69.9236 33.0384 68.7873C32.2997 67.6395 31.9304 66.202 31.9304 64.4748C31.9304 63.0202 32.1861 61.793 32.6974 60.793C33.2088 59.793 33.9134 58.9805 34.8111 58.3555C35.7088 57.7305 36.7429 57.2589 37.9134 56.9407C39.0838 56.6111 40.3338 56.3896 41.6634 56.2759C43.152 56.1396 44.3509 55.9975 45.2599 55.8498C46.169 55.6907 46.8281 55.4691 47.2372 55.185C47.6577 54.8896 47.8679 54.4748 47.8679 53.9407V53.8555C47.8679 52.9805 47.5668 52.3043 46.9645 51.827C46.3622 51.3498 45.5497 51.1111 44.527 51.1111C43.4247 51.1111 42.5384 51.3498 41.8679 51.827C41.1974 52.3043 40.7713 52.9634 40.5895 53.8043L32.902 53.5316C33.1293 51.9407 33.7145 50.5202 34.6577 49.2702C35.6122 48.0089 36.919 47.0202 38.5781 46.3043C40.2486 45.577 42.2543 45.2134 44.5952 45.2134C46.2656 45.2134 47.8054 45.4123 49.2145 45.81C50.6236 46.1964 51.8509 46.7645 52.8963 47.5145C53.9418 48.2532 54.7486 49.1623 55.3168 50.2418C55.8963 51.3214 56.1861 52.5543 56.1861 53.9407V71.7361H48.3452V68.0884H48.1406C47.6747 68.9748 47.0781 69.7248 46.3509 70.3384C45.6349 70.9521 44.7884 71.4123 43.8111 71.7191C42.8452 72.0259 41.7543 72.1793 40.5384 72.1793ZM43.1122 66.7248C44.0099 66.7248 44.8168 66.543 45.5327 66.1793C46.2599 65.8157 46.8395 65.3157 47.2713 64.6793C47.7031 64.0316 47.919 63.2816 47.919 62.4293V59.9407C47.6804 60.0657 47.3906 60.1793 47.0497 60.2816C46.7202 60.3839 46.3565 60.4805 45.9588 60.5714C45.5611 60.6623 45.152 60.7418 44.7315 60.81C44.3111 60.8782 43.9077 60.9407 43.5213 60.9975C42.7372 61.1225 42.0668 61.3157 41.5099 61.577C40.9645 61.8384 40.544 62.1793 40.2486 62.5998C39.9645 63.0089 39.8224 63.4975 39.8224 64.0657C39.8224 64.9293 40.1293 65.5884 40.7429 66.043C41.3679 66.4975 42.1577 66.7248 43.1122 66.7248Z" fill="#E69B00"/>
<path d="M61.2827 71.7361V36.827H69.6179V50.0373H69.7884C70.1293 49.2418 70.6122 48.4748 71.2372 47.7361C71.8736 46.9975 72.6804 46.3952 73.6577 45.9293C74.6463 45.452 75.8281 45.2134 77.2031 45.2134C79.0213 45.2134 80.7202 45.6907 82.2997 46.6452C83.8906 47.5998 85.1747 49.0714 86.152 51.06C87.1293 53.0486 87.6179 55.5827 87.6179 58.6623C87.6179 61.6282 87.1463 64.1111 86.2031 66.1111C85.2713 68.1111 84.0099 69.6111 82.419 70.6111C80.8395 71.6111 79.0838 72.1111 77.152 72.1111C75.8338 72.1111 74.6918 71.8952 73.7259 71.4634C72.7599 71.0316 71.9474 70.4634 71.2884 69.7589C70.6406 69.0543 70.1406 68.2986 69.7884 67.4918H69.5327V71.7361H61.2827ZM69.4474 58.6452C69.4474 60.0543 69.6349 61.2816 70.0099 62.327C70.3963 63.3725 70.9474 64.185 71.6634 64.7645C72.3906 65.3327 73.2599 65.6168 74.2713 65.6168C75.294 65.6168 76.1634 65.3327 76.8793 64.7645C77.5952 64.185 78.1349 63.3725 78.4986 62.327C78.8736 61.2816 79.0611 60.0543 79.0611 58.6452C79.0611 57.2361 78.8736 56.0146 78.4986 54.9805C78.1349 53.9464 77.5952 53.1452 76.8793 52.577C76.1747 52.0089 75.3054 51.7248 74.2713 51.7248C73.2486 51.7248 72.3793 52.0032 71.6634 52.56C70.9474 53.1168 70.3963 53.9123 70.0099 54.9464C69.6349 55.9805 69.4474 57.2134 69.4474 58.6452Z" fill="#E6B400"/>
<path d="M91.9858 71.7361V45.5543H100.321V71.7361H91.9858ZM96.1619 42.5032C94.9915 42.5032 93.9858 42.1168 93.1449 41.3441C92.304 40.56 91.8835 39.6168 91.8835 38.5145C91.8835 37.4236 92.304 36.4918 93.1449 35.7191C93.9858 34.935 94.9915 34.543 96.1619 34.543C97.3438 34.543 98.3494 34.935 99.179 35.7191C100.02 36.4918 100.44 37.4236 100.44 38.5145C100.44 39.6168 100.02 40.56 99.179 41.3441C98.3494 42.1168 97.3438 42.5032 96.1619 42.5032Z" fill="#E6CC00"/>
<path d="M147.188 53.5486L139.534 53.7532C139.455 53.2077 139.239 52.7248 138.886 52.3043C138.534 51.8725 138.074 51.5373 137.506 51.2986C136.949 51.0486 136.301 50.9236 135.562 50.9236C134.597 50.9236 133.773 51.1168 133.091 51.5032C132.42 51.8896 132.091 52.4123 132.102 53.0714C132.091 53.5827 132.295 54.0259 132.716 54.4009C133.148 54.7759 133.915 55.077 135.017 55.3043L140.062 56.2589C142.676 56.7589 144.619 57.5884 145.892 58.7475C147.176 59.9066 147.824 61.4407 147.835 63.3498C147.824 65.1452 147.29 66.7077 146.233 68.0373C145.188 69.3668 143.756 70.4009 141.938 71.1395C140.119 71.8668 138.04 72.2305 135.699 72.2305C131.96 72.2305 129.011 71.4634 126.852 69.9293C124.705 68.3839 123.477 66.3157 123.17 63.7248L131.403 63.5202C131.585 64.4748 132.057 65.202 132.818 65.702C133.58 66.202 134.551 66.452 135.733 66.452C136.801 66.452 137.67 66.2532 138.341 65.8555C139.011 65.4577 139.352 64.9293 139.364 64.2702C139.352 63.6793 139.091 63.2077 138.58 62.8555C138.068 62.4918 137.267 62.2077 136.176 62.0032L131.608 61.1339C128.983 60.6566 127.028 59.7759 125.744 58.4918C124.46 57.1964 123.824 55.5486 123.835 53.5486C123.824 51.7986 124.29 50.3043 125.233 49.0657C126.176 47.8157 127.517 46.8611 129.256 46.202C130.994 45.543 133.045 45.2134 135.409 45.2134C138.955 45.2134 141.75 45.9577 143.795 47.4464C145.841 48.9236 146.972 50.9577 147.188 53.5486Z" fill="#E5DE00"/>
<rect x="0.5" y="1.23615" width="15" height="15" rx="3.5" fill="#E47200" stroke="#E47200"/>
<rect x="20.5" y="1.23615" width="15" height="15" rx="3.5" fill="#E69B00" stroke="#E69B00"/>
<rect x="40.5" y="1.23615" width="15" height="15" rx="3.5" fill="#E6B400" stroke="#E6B400"/>
<rect x="60.5" y="1.23615" width="15" height="15" rx="3.5" fill="#E6CC00" stroke="#E6CC00"/>
<rect x="80.5" y="1.23615" width="15" height="15" rx="3.5" fill="#E5DE00" stroke="#E5DE00"/>
<path d="M120.42 46.0819V52.2183H103.903V46.0819H120.42ZM107.364 39.8092H115.699V64.0308C115.699 64.5422 115.778 64.9569 115.938 65.2751C116.108 65.5819 116.352 65.8035 116.67 65.9399C116.989 66.0649 117.369 66.1274 117.812 66.1274C118.131 66.1274 118.466 66.099 118.818 66.0422C119.182 65.974 119.455 65.9172 119.636 65.8717L120.898 71.8888C120.5 72.0024 119.938 72.1444 119.21 72.3149C118.494 72.4854 117.636 72.5933 116.636 72.6388C114.682 72.7297 113.006 72.5024 111.608 71.9569C110.222 71.4001 109.159 70.5365 108.42 69.366C107.693 68.1956 107.341 66.724 107.364 64.9513V39.8092Z" fill="#E5DE00"/>
</svg>
