<svg width="148" height="86" viewBox="0 0 148 86" fill="none" xmlns="http://www.w3.org/2000/svg">
<path d="M10.9773 56.7162V71.648H2.64204V36.7389H10.7045V50.273H10.9943C11.5852 48.6594 12.5511 47.398 13.892 46.4889C15.2443 45.5799 16.8977 45.1253 18.8523 45.1253C20.6932 45.1253 22.2955 45.5344 23.6591 46.3526C25.0227 47.1594 26.0795 48.3014 26.8295 49.7787C27.5909 51.256 27.9659 52.9833 27.9545 54.9605V71.648H19.6193V56.5969C19.6307 55.1424 19.267 54.006 18.5284 53.1878C17.7898 52.3696 16.75 51.9605 15.4091 51.9605C14.5341 51.9605 13.7614 52.1537 13.0909 52.5401C12.4318 52.9151 11.9148 53.4549 11.5398 54.1594C11.1761 54.8639 10.9886 55.7162 10.9773 56.7162Z" fill="#E47200"/>
<path d="M10.9773 56.7162V71.648H2.64204V36.7389H10.7045V50.273H10.9943C11.5852 48.6594 12.5511 47.398 13.892 46.4889C15.2443 45.5799 16.8977 45.1253 18.8523 45.1253C20.6932 45.1253 22.2955 45.5344 23.6591 46.3526C25.0227 47.1594 26.0795 48.3014 26.8295 49.7787C27.5909 51.256 27.9659 52.9833 27.9545 54.9605V71.648H19.6193V56.5969C19.6307 55.1424 19.267 54.006 18.5284 53.1878C17.7898 52.3696 16.75 51.9605 15.4091 51.9605C14.5341 51.9605 13.7614 52.1537 13.0909 52.5401C12.4318 52.9151 11.9148 53.4549 11.5398 54.1594C11.1761 54.8639 10.9886 55.7162 10.9773 56.7162Z" fill="black" fill-opacity="0.2"/>
<path d="M40.5384 72.0912C38.8679 72.0912 37.3849 71.8128 36.0895 71.256C34.8054 70.6878 33.7884 69.8355 33.0384 68.6992C32.2997 67.5514 31.9304 66.1139 31.9304 64.3867C31.9304 62.9321 32.1861 61.7049 32.6974 60.7049C33.2088 59.7049 33.9134 58.8924 34.8111 58.2674C35.7088 57.6424 36.7429 57.1708 37.9134 56.8526C39.0838 56.523 40.3338 56.3014 41.6634 56.1878C43.152 56.0514 44.3509 55.9094 45.2599 55.7617C46.169 55.6026 46.8281 55.381 47.2372 55.0969C47.6577 54.8014 47.8679 54.3867 47.8679 53.8526V53.7674C47.8679 52.8924 47.5668 52.2162 46.9645 51.7389C46.3622 51.2617 45.5497 51.023 44.527 51.023C43.4247 51.023 42.5384 51.2617 41.8679 51.7389C41.1974 52.2162 40.7713 52.8753 40.5895 53.7162L32.902 53.4435C33.1293 51.8526 33.7145 50.4321 34.6577 49.1821C35.6122 47.9208 36.919 46.9321 38.5781 46.2162C40.2486 45.4889 42.2543 45.1253 44.5952 45.1253C46.2656 45.1253 47.8054 45.3242 49.2145 45.7219C50.6236 46.1083 51.8509 46.6764 52.8963 47.4264C53.9418 48.1651 54.7486 49.0742 55.3168 50.1537C55.8963 51.2333 56.1861 52.4662 56.1861 53.8526V71.648H48.3452V68.0003H48.1406C47.6747 68.8867 47.0781 69.6367 46.3509 70.2503C45.6349 70.8639 44.7884 71.3242 43.8111 71.631C42.8452 71.9378 41.7543 72.0912 40.5384 72.0912ZM43.1122 66.6367C44.0099 66.6367 44.8168 66.4549 45.5327 66.0912C46.2599 65.7276 46.8395 65.2276 47.2713 64.5912C47.7031 63.9435 47.919 63.1935 47.919 62.3412V59.8526C47.6804 59.9776 47.3906 60.0912 47.0497 60.1935C46.7202 60.2958 46.3565 60.3924 45.9588 60.4833C45.5611 60.5742 45.152 60.6537 44.7315 60.7219C44.3111 60.7901 43.9077 60.8526 43.5213 60.9094C42.7372 61.0344 42.0668 61.2276 41.5099 61.4889C40.9645 61.7503 40.544 62.0912 40.2486 62.5117C39.9645 62.9208 39.8224 63.4094 39.8224 63.9776C39.8224 64.8412 40.1293 65.5003 40.7429 65.9549C41.3679 66.4094 42.1577 66.6367 43.1122 66.6367Z" fill="#E69B00"/>
<path d="M61.2827 71.648V36.7389H69.6179V49.9492H69.7884C70.1293 49.1537 70.6122 48.3867 71.2372 47.648C71.8736 46.9094 72.6804 46.3071 73.6577 45.8412C74.6463 45.3639 75.8281 45.1253 77.2031 45.1253C79.0213 45.1253 80.7202 45.6026 82.2997 46.5571C83.8906 47.5117 85.1747 48.9833 86.152 50.9719C87.1293 52.9605 87.6179 55.4946 87.6179 58.5742C87.6179 61.5401 87.1463 64.023 86.2031 66.023C85.2713 68.023 84.0099 69.523 82.419 70.523C80.8395 71.523 79.0838 72.023 77.152 72.023C75.8338 72.023 74.6918 71.8071 73.7259 71.3753C72.7599 70.9435 71.9474 70.3753 71.2884 69.6708C70.6406 68.9662 70.1406 68.2105 69.7884 67.4037H69.5327V71.648H61.2827ZM69.4474 58.5571C69.4474 59.9662 69.6349 61.1935 70.0099 62.2389C70.3963 63.2844 70.9474 64.0969 71.6634 64.6764C72.3906 65.2446 73.2599 65.5287 74.2713 65.5287C75.294 65.5287 76.1634 65.2446 76.8793 64.6764C77.5952 64.0969 78.1349 63.2844 78.4986 62.2389C78.8736 61.1935 79.0611 59.9662 79.0611 58.5571C79.0611 57.148 78.8736 55.9264 78.4986 54.8924C78.1349 53.8583 77.5952 53.0571 76.8793 52.4889C76.1747 51.9208 75.3054 51.6367 74.2713 51.6367C73.2486 51.6367 72.3793 51.9151 71.6634 52.4719C70.9474 53.0287 70.3963 53.8242 70.0099 54.8583C69.6349 55.8924 69.4474 57.1253 69.4474 58.5571Z" fill="#E6B400"/>
<path d="M91.9858 71.648V45.4662H100.321V71.648H91.9858ZM96.1619 42.4151C94.9915 42.4151 93.9858 42.0287 93.1449 41.256C92.304 40.4719 91.8835 39.5287 91.8835 38.4264C91.8835 37.3355 92.304 36.4037 93.1449 35.631C93.9858 34.8469 94.9915 34.4549 96.1619 34.4549C97.3438 34.4549 98.3494 34.8469 99.179 35.631C100.02 36.4037 100.44 37.3355 100.44 38.4264C100.44 39.5287 100.02 40.4719 99.179 41.256C98.3494 42.0287 97.3438 42.4151 96.1619 42.4151Z" fill="#E6CC00"/>
<path d="M147.188 53.4605L139.534 53.6651C139.455 53.1196 139.239 52.6367 138.886 52.2162C138.534 51.7844 138.074 51.4492 137.506 51.2105C136.949 50.9605 136.301 50.8355 135.562 50.8355C134.597 50.8355 133.773 51.0287 133.091 51.4151C132.42 51.8014 132.091 52.3242 132.102 52.9833C132.091 53.4946 132.295 53.9378 132.716 54.3128C133.148 54.6878 133.915 54.9889 135.017 55.2162L140.062 56.1708C142.676 56.6708 144.619 57.5003 145.892 58.6594C147.176 59.8185 147.824 61.3526 147.835 63.2617C147.824 65.0571 147.29 66.6196 146.233 67.9492C145.188 69.2787 143.756 70.3128 141.938 71.0514C140.119 71.7787 138.04 72.1424 135.699 72.1424C131.96 72.1424 129.011 71.3753 126.852 69.8412C124.705 68.2958 123.477 66.2276 123.17 63.6367L131.403 63.4321C131.585 64.3867 132.057 65.1139 132.818 65.6139C133.58 66.1139 134.551 66.3639 135.733 66.3639C136.801 66.3639 137.67 66.1651 138.341 65.7674C139.011 65.3696 139.352 64.8412 139.364 64.1821C139.352 63.5912 139.091 63.1196 138.58 62.7674C138.068 62.4037 137.267 62.1196 136.176 61.9151L131.608 61.0458C128.983 60.5685 127.028 59.6878 125.744 58.4037C124.46 57.1083 123.824 55.4605 123.835 53.4605C123.824 51.7105 124.29 50.2162 125.233 48.9776C126.176 47.7276 127.517 46.773 129.256 46.1139C130.994 45.4549 133.045 45.1253 135.409 45.1253C138.955 45.1253 141.75 45.8696 143.795 47.3583C145.841 48.8355 146.972 50.8696 147.188 53.4605Z" fill="#E5DE00"/>
<rect x="0.5" y="1.32402" width="25" height="25" rx="3.5" fill="#E47200" stroke="#E47200"/>
<rect x="30.5" y="1.32402" width="25" height="25" rx="3.5" fill="#E69B00" stroke="#E69B00"/>
<rect x="60.5" y="1.32402" width="25" height="25" rx="3.5" fill="#E6B400" stroke="#E6B400"/>
<rect x="90.5" y="1.32402" width="25" height="25" rx="3.5" fill="#E6CC00" stroke="#E6CC00"/>
<rect x="120.5" y="1.32402" width="25" height="25" rx="3.5" fill="#E5DE00" stroke="#E5DE00"/>
<path d="M120.42 45.9938V52.1302H103.903V45.9938H120.42ZM107.364 39.7211H115.699V63.9427C115.699 64.4541 115.778 64.8688 115.938 65.187C116.108 65.4938 116.352 65.7154 116.67 65.8518C116.989 65.9768 117.369 66.0393 117.812 66.0393C118.131 66.0393 118.466 66.0109 118.818 65.9541C119.182 65.8859 119.455 65.8291 119.636 65.7836L120.898 71.8007C120.5 71.9143 119.938 72.0563 119.21 72.2268C118.494 72.3973 117.636 72.5052 116.636 72.5507C114.682 72.6416 113.006 72.4143 111.608 71.8688C110.222 71.312 109.159 70.4484 108.42 69.2779C107.693 68.1075 107.341 66.6359 107.364 64.8632V39.7211Z" fill="#E5DE00"/>
</svg>
